<svg width="317" height="82" viewBox="0 0 317 82" fill="none" xmlns="http://www.w3.org/2000/svg">
<g clip-path="url(#clip0_1_2)">
<path d="M49.67 26.69C49.67 26.69 50.21 27.72 49.04 29.24C47.93 30.69 43.75 34.03 39.81 36.9C39.44 37.17 39.27 37.64 39.4 38.09L43.11 51.07C43.23 51.48 43.04 51.91 42.66 52.1L41.85 52.5C41.66 52.6 41.42 52.55 41.28 52.38L32.87 42.54L21.22 48.9L22.15 53.35C22.18 53.5 22.11 53.65 21.97 53.71L21.14 54.12C21.02 54.18 20.88 54.16 20.78 54.08L16.83 50.73L15.16 51.2C15.01 51.24 14.85 51.18 14.76 51.05C14.68 50.94 14.68 50.79 14.75 50.67L15.36 49.61L7.96 46.37C7.86 46.33 7.86 46.18 7.96 46.14L8.34 45.97C8.86 45.74 9.43 45.66 9.99 45.73L15 46.34L13.96 44.3C13.79 43.96 13.9 43.55 14.22 43.34L14.97 42.86C15.16 42.74 15.4 42.71 15.61 42.78L20.38 44.41L26.24 40.11L8.27 31.94C8.02 31.83 7.99 31.49 8.21 31.33L8.74 30.95C9.17 30.64 9.71 30.52 10.23 30.62L32.81 34.67C33.32 34.76 33.84 34.64 34.25 34.34L42.81 28.14C43.91 27.34 45.13 26.74 46.44 26.38C47.67 26.04 49.02 25.92 49.68 26.66L49.67 26.69Z" fill="#D97708"/>
<path d="M14.51 38.21C14.51 37.84 14.53 37.48 14.55 37.12L9.09 34.64C8.88 35.8 8.78 36.99 8.78 38.21C8.78 40.21 9.07 42.15 9.62 43.98C9.9 43.97 10.19 43.98 10.47 44.01L12.14 44.21C12.14 43.31 12.59 42.43 13.4 41.91L14.15 41.43C14.36 41.3 14.58 41.2 14.81 41.13C14.62 40.19 14.52 39.21 14.52 38.21H14.51Z" fill="#606060"/>
<path d="M48.63 32.91C47.07 34.29 45.1 35.83 43.55 37C43.58 37.4 43.6 37.8 43.6 38.21C43.6 39.75 43.36 41.23 42.92 42.62L45.22 50.66L46.07 49.24C48.13 46.06 49.33 42.28 49.33 38.21C49.33 36.38 49.08 34.6 48.63 32.91Z" fill="#606060"/>
<path d="M56.33 17.24L42.88 23.26C38.1 19.33 33.99 17.94 29.05 17.94C21.18 17.94 14.36 22.42 11 28.97L17.01 30.05C19.63 26.2 24.04 23.67 29.05 23.67C33.27 23.67 37.08 25.47 39.73 28.35L43.73 25.67C43.73 25.67 43.73 25.67 43.74 25.67L44.53 25.14L56.32 17.25L56.33 17.24Z" fill="#606060"/>
<path d="M40.01 53.91L37.01 50.4C34.72 51.89 31.99 52.77 29.06 52.77C27.3 52.77 25.62 52.46 24.06 51.89L24.33 53.2C24.55 54.23 24.04 55.27 23.1 55.74L22.27 56.15C21.94 56.31 21.59 56.39 21.24 56.39C20.7 56.39 20.17 56.2 19.74 55.84L16.62 53.19L16.59 53.14L0 64.25L16.7 56.71L27.41 74.81C28.15 76.06 29.97 76.07 30.72 74.81L42.89 54.53C41.9 54.98 40.73 54.73 40.01 53.89V53.91Z" fill="#606060"/>
<path d="M15.34 52.42L5.52 58.99L14.69 52.1L15.34 52.42Z" fill="#606060"/>
<g opacity="0.3">
<mask id="mask0_1_2" style="mask-type:luminance" maskUnits="userSpaceOnUse" x="11" y="17" width="46" height="14">
<path d="M56.33 17.24L42.88 23.26C38.1 19.33 33.99 17.94 29.05 17.94C21.18 17.94 14.36 22.42 11 28.97L17.01 30.05C19.63 26.2 24.04 23.67 29.05 23.67C33.27 23.67 37.08 25.47 39.73 28.35L43.73 25.67C43.73 25.67 43.73 25.67 43.74 25.67L44.53 25.14L56.32 17.25L56.33 17.24Z" fill="white"/>
</mask>
<g mask="url(#mask0_1_2)">
<g style="mix-blend-mode:multiply">
<path d="M40.99 20.19L33.85 7.82C33.85 7.76 33.83 7.7 33.8 7.65C33.73 7.52 33.59 7.44 33.44 7.44H33.4C33.25 7.44 33.11 7.52 33.04 7.65C33.01 7.7 32.99 7.76 32.99 7.81L30.26 12.35L28.12 8.63L31.88 2.36L31.16 1.93L25.2 11.86L18.35 0L17.63 0.42L24.71 12.69L22.4 16.54L15.54 4.64L14.82 5.06L21.92 17.36L13.34 31.63L14.06 32.06L22.4 18.19L24.54 21.91L18.04 32.73C17.92 32.93 17.99 33.18 18.18 33.3C18.25 33.34 18.32 33.36 18.39 33.36C18.53 33.36 18.67 33.29 18.75 33.16L25.01 22.74L28.63 29.01L29.35 28.59L25.5 21.92L30.25 14L38.62 28.52L39.34 28.1L30.74 13.17L33.42 8.71L40.28 20.6C40.4 20.8 40.65 20.87 40.85 20.75C41.05 20.63 41.12 20.38 41 20.18L40.99 20.19ZM25.01 21.09L22.87 17.37L27.62 9.45L29.76 13.17L25.01 21.09Z" fill="#728FF3"/>
<path d="M17.2 23.85L14.95 19.99L13.32 22.57L15.57 26.43L17.2 23.85Z" fill="#728FF3"/>
<path d="M29.98 23.21V23.2H29.97L29.98 23.21Z" fill="#728FF3"/>
<path d="M26.09 21.92L28.34 25.78L29.97 23.2L27.73 19.34L26.09 21.92Z" fill="#728FF3"/>
<path d="M28.57 17.76L29.49 19.28L31.12 16.7L30.19 15.2L28.57 17.76Z" fill="#728FF3"/>
<path d="M12.43 28.76L13.18 30.05L15.2 26.96L14.26 25.46L12.25 28.53L12.43 28.76Z" fill="#728FF3"/>
</g>
</g>
</g>
<g opacity="0.3">
<mask id="mask1_1_2" style="mask-type:luminance" maskUnits="userSpaceOnUse" x="0" y="50" width="43" height="26">
<path d="M40.01 53.91L37.01 50.4C34.72 51.89 31.99 52.77 29.06 52.77C27.3 52.77 25.62 52.46 24.06 51.89L24.33 53.2C24.55 54.23 24.04 55.27 23.1 55.74L22.27 56.15C21.94 56.31 21.59 56.39 21.24 56.39C20.7 56.39 20.17 56.2 19.74 55.84L16.62 53.19L16.59 53.14L0 64.25L16.7 56.71L27.41 74.81C28.15 76.06 29.97 76.07 30.72 74.81L42.89 54.53C41.9 54.98 40.73 54.73 40.01 53.89V53.91Z" fill="white"/>
</mask>
<g mask="url(#mask1_1_2)">
<g style="mix-blend-mode:multiply">
<path d="M44.83 67.88L37.69 55.51C37.69 55.45 37.67 55.39 37.64 55.34C37.57 55.21 37.43 55.13 37.28 55.13H37.24C37.09 55.13 36.95 55.21 36.88 55.34C36.85 55.39 36.83 55.45 36.83 55.5L34.1 60.04L31.96 56.32L35.72 50.05L35 49.62L29.04 59.55L22.19 47.68L21.47 48.1L28.55 60.37L26.24 64.22L19.38 52.32L18.66 52.74L25.76 65.04L19.96 74.71L20.68 75.14L26.24 65.87L28.38 69.59L21.88 80.41C21.76 80.61 21.83 80.86 22.02 80.98C22.09 81.02 22.16 81.04 22.23 81.04C22.37 81.04 22.51 80.97 22.59 80.84L28.85 70.42L32.47 76.69L33.19 76.27L29.34 69.6L34.09 61.68L38.23 68.86L38.95 68.44L34.58 60.86L37.26 56.4L44.12 68.29C44.24 68.49 44.49 68.56 44.69 68.44C44.89 68.32 44.96 68.07 44.84 67.87L44.83 67.88ZM28.85 68.78L26.71 65.06L31.46 57.14L33.6 60.86L28.85 68.78Z" fill="#728FF3"/>
<path d="M27.82 60.27L25.57 56.42L23.94 58.99L26.19 62.85L27.82 60.27Z" fill="#728FF3"/>
<path d="M23.93 59L23.94 58.99H23.93V59Z" fill="#728FF3"/>
<path d="M29.93 69.62L32.18 73.48L33.81 70.9L31.56 67.04L29.93 69.62Z" fill="#728FF3"/>
<path d="M28.04 56.81L28.97 58.33L30.6 55.76L29.66 54.26L28.04 56.81Z" fill="#728FF3"/>
<path d="M32.4 65.45L33.33 66.97L34.96 64.39L34.02 62.89L32.4 65.45Z" fill="#728FF3"/>
<path d="M41.68 54.52L40.43 53.51L38.81 56.07L39.74 57.59L41.68 54.52Z" fill="#728FF3"/>
<path d="M29.4 53.72L28.46 52.22L26.84 54.78L27.77 56.3L29.4 53.72Z" fill="#728FF3"/>
<path d="M20.11 63.23L20.86 64.51L22.88 61.42L21.94 59.92L19.93 62.99L20.11 63.23Z" fill="#728FF3"/>
<path d="M20.74 57.88L18.75 60.94L18.91 61.19L19.68 62.46L21.68 59.38L20.74 57.88Z" fill="#728FF3"/>
</g>
</g>
</g>
<path d="M76.51 48.22V24.83H68.67V19.99H90.63V24.83H82.65V48.22H76.51Z" fill="#D97708"/>
<path d="M94.16 48.22V19.99H104.87C106.99 19.99 108.76 20.38 110.18 21.16C111.6 21.94 112.67 22.98 113.41 24.3C114.14 25.61 114.51 27.09 114.51 28.74C114.51 30.26 114.22 31.56 113.64 32.62C113.06 33.68 112.35 34.55 111.51 35.22C110.67 35.89 109.85 36.39 109.05 36.72L116 48.24H108.96L103.54 37.84H100.27V48.24H94.18L94.16 48.22ZM100.26 33.12H102.64C104.25 33.12 105.58 32.78 106.63 32.09C107.68 31.4 108.2 30.31 108.2 28.82C108.2 27.51 107.78 26.48 106.95 25.75C106.11 25.02 104.9 24.65 103.32 24.65H100.27V33.12H100.26Z" fill="#D97708"/>
<path d="M117.24 48.22L127.77 19.99H134.13L144.57 48.22H138.07L135.87 41.72H125.83L123.63 48.22H117.22H117.24ZM127.23 37.2H134.4L133.1 33.44C132.71 32.31 132.33 31.11 131.96 29.86C131.59 28.61 131.24 27.43 130.91 26.32H130.82C130.52 27.43 130.17 28.58 129.77 29.79C129.37 31 128.96 32.22 128.54 33.44L127.24 37.2H127.23Z" fill="#D97708"/>
<path d="M153 48.22L142.78 19.99H149.28L153.54 32.81C153.99 34.15 154.47 35.66 154.97 37.34C155.48 39.01 155.93 40.66 156.31 42.27H156.44C156.86 40.6 157.31 38.95 157.78 37.32C158.26 35.69 158.72 34.18 159.17 32.77L163.43 20H169.75L159.67 48.23H152.99L153 48.22Z" fill="#D97708"/>
<path d="M173.07 48.22V19.99H191.44V24.74H179.21V31.19H190.28V35.9H179.21V43.47H191.58V48.22H173.07Z" fill="#D97708"/>
<path d="M196.28 48.22V19.99H202.42V43.38H213.8V48.22H196.28Z" fill="#D97708"/>
<path d="M217.25 48.22V19.99H223.39V43.38H234.77V48.22H217.25Z" fill="#D97708"/>
<path d="M238.22 48.22V19.99H256.59V24.74H244.36V31.19H255.43V35.9H244.36V43.47H256.73V48.22H238.22Z" fill="#D97708"/>
<path d="M261.43 48.22V19.99H272.14C274.26 19.99 276.03 20.38 277.45 21.16C278.87 21.94 279.94 22.98 280.68 24.3C281.41 25.61 281.78 27.09 281.78 28.74C281.78 30.26 281.49 31.56 280.91 32.62C280.33 33.68 279.62 34.55 278.78 35.22C277.94 35.89 277.12 36.39 276.32 36.72L283.27 48.24H276.24L270.82 37.84H267.55V48.24H261.46L261.43 48.22ZM267.52 33.12H269.9C271.51 33.12 272.84 32.78 273.89 32.09C274.93 31.4 275.46 30.31 275.46 28.82C275.46 27.51 275.04 26.48 274.21 25.75C273.37 25.02 272.16 24.65 270.58 24.65H267.53V33.12H267.52Z" fill="#D97708"/>
<path d="M293.42 55.84V51.13C294.2 51.1 294.86 50.97 295.41 50.73C295.96 50.49 296.43 50.21 296.82 49.88C297.36 49.37 297.71 48.72 297.87 47.93C298.03 47.14 298.12 46.28 298.12 45.35V19.99H304.26V43.07C304.26 45.43 304.1 47.34 303.79 48.81C303.48 50.27 302.84 51.57 301.89 52.71C300.87 53.85 299.62 54.64 298.13 55.11C296.64 55.57 295.07 55.82 293.42 55.85V55.84Z" fill="#0B0B0B"/>
<path d="M310.4 48.22V19.99H316.54V48.22H310.4Z" fill="#0B0B0B"/>
<path d="M73.78 61.05L75.46 65.34L77.22 60.73L78.9 65.34L80.69 61.05H81.75L78.86 67.88L77.2 63.33L75.47 67.89L72.73 61.05H73.79H73.78Z" fill="#606060"/>
<path d="M84.42 60.45H85.36V63.76C85.69 63.46 86.06 63.31 86.47 63.31C86.93 63.31 87.3 63.46 87.57 63.76C87.8 64.02 87.92 64.43 87.92 65V67.48H86.98V65.08C86.98 64.75 86.92 64.52 86.81 64.37C86.69 64.22 86.51 64.15 86.25 64.15C85.92 64.15 85.69 64.25 85.55 64.45C85.42 64.66 85.35 65.01 85.35 65.51V67.47H84.41V60.44L84.42 60.45Z" fill="#606060"/>
<path d="M94.89 65.67H91.97C92 66 92.1 66.27 92.3 66.46C92.49 66.65 92.74 66.75 93.04 66.75C93.27 66.75 93.47 66.69 93.62 66.58C93.77 66.47 93.94 66.26 94.13 65.96L94.92 66.4C94.8 66.61 94.67 66.79 94.53 66.93C94.39 67.07 94.25 67.2 94.09 67.3C93.93 67.4 93.77 67.47 93.58 67.51C93.4 67.55 93.2 67.58 92.99 67.58C92.38 67.58 91.89 67.39 91.53 67C91.16 66.61 90.98 66.09 90.98 65.44C90.98 64.79 91.16 64.28 91.52 63.88C91.88 63.49 92.36 63.29 92.95 63.29C93.54 63.29 94.02 63.48 94.37 63.86C94.72 64.24 94.89 64.76 94.89 65.43V65.65V65.67ZM93.92 64.91C93.79 64.41 93.47 64.16 92.97 64.16C92.86 64.16 92.75 64.18 92.65 64.21C92.55 64.25 92.46 64.29 92.38 64.36C92.3 64.42 92.23 64.5 92.17 64.59C92.11 64.68 92.07 64.79 92.04 64.9H93.93L93.92 64.91Z" fill="#606060"/>
<path d="M97.97 63.43H98.91V63.79C99.08 63.61 99.24 63.49 99.37 63.42C99.51 63.35 99.67 63.32 99.86 63.32C100.11 63.32 100.37 63.4 100.64 63.56L100.21 64.42C100.03 64.29 99.86 64.23 99.69 64.23C99.18 64.23 98.92 64.62 98.92 65.39V67.49H97.98V63.44L97.97 63.43Z" fill="#606060"/>
<path d="M106.89 65.67H103.97C104 66 104.1 66.27 104.3 66.46C104.49 66.65 104.74 66.75 105.04 66.75C105.27 66.75 105.47 66.69 105.62 66.58C105.77 66.47 105.94 66.26 106.13 65.96L106.92 66.4C106.8 66.61 106.67 66.79 106.53 66.93C106.39 67.07 106.25 67.2 106.09 67.3C105.93 67.4 105.77 67.47 105.58 67.51C105.4 67.55 105.2 67.58 104.99 67.58C104.38 67.58 103.89 67.39 103.53 67C103.16 66.61 102.98 66.09 102.98 65.44C102.98 64.79 103.16 64.28 103.52 63.88C103.88 63.49 104.36 63.29 104.95 63.29C105.54 63.29 106.02 63.48 106.37 63.86C106.72 64.24 106.89 64.76 106.89 65.43V65.65V65.67ZM105.92 64.91C105.79 64.41 105.47 64.16 104.97 64.16C104.86 64.16 104.75 64.18 104.65 64.21C104.55 64.25 104.46 64.29 104.38 64.36C104.3 64.42 104.23 64.5 104.17 64.59C104.11 64.68 104.07 64.79 104.04 64.9H105.93L105.92 64.91Z" fill="#606060"/>
<path d="M118.41 61.97H115.82V63.51H118.33V64.42H115.82V66.57H118.41V67.48H114.85V61.06H118.41V61.97Z" fill="#606060"/>
<path d="M122.08 63.43L123.13 65.71L124.18 63.43H125.24L123.12 67.76L121.02 63.43H122.07H122.08Z" fill="#606060"/>
<path d="M131.5 65.67H128.58C128.61 66 128.71 66.27 128.91 66.46C129.1 66.65 129.35 66.75 129.65 66.75C129.88 66.75 130.08 66.69 130.23 66.58C130.38 66.47 130.55 66.26 130.74 65.96L131.53 66.4C131.41 66.61 131.28 66.79 131.14 66.93C131 67.07 130.86 67.2 130.7 67.3C130.54 67.4 130.38 67.47 130.19 67.51C130.01 67.55 129.81 67.58 129.6 67.58C128.99 67.58 128.5 67.39 128.14 67C127.77 66.61 127.59 66.09 127.59 65.44C127.59 64.79 127.77 64.28 128.13 63.88C128.49 63.49 128.97 63.29 129.56 63.29C130.15 63.29 130.63 63.48 130.98 63.86C131.33 64.24 131.5 64.76 131.5 65.43V65.65V65.67ZM130.53 64.91C130.4 64.41 130.08 64.16 129.58 64.16C129.47 64.16 129.36 64.18 129.26 64.21C129.16 64.25 129.07 64.29 128.99 64.36C128.91 64.42 128.84 64.5 128.78 64.59C128.72 64.68 128.68 64.79 128.65 64.9H130.54L130.53 64.91Z" fill="#606060"/>
<path d="M134.58 63.43H135.52V63.79C135.69 63.61 135.85 63.49 135.98 63.42C136.12 63.35 136.28 63.32 136.47 63.32C136.72 63.32 136.98 63.4 137.25 63.56L136.82 64.42C136.64 64.29 136.47 64.23 136.3 64.23C135.79 64.23 135.53 64.62 135.53 65.39V67.49H134.59V63.44L134.58 63.43Z" fill="#606060"/>
<path d="M141.5 66.73L139.67 63.43H140.76L142.01 65.76L143.17 63.43H144.23L140.98 69.69H139.91L141.5 66.73Z" fill="#606060"/>
<path d="M153.59 61.97V67.48H152.62V61.97H151.14V61.06H155.08V61.97H153.6H153.59Z" fill="#606060"/>
<path d="M157.53 63.43H158.47V63.79C158.64 63.61 158.8 63.49 158.93 63.42C159.07 63.35 159.23 63.32 159.42 63.32C159.67 63.32 159.93 63.4 160.2 63.56L159.77 64.42C159.59 64.29 159.42 64.23 159.25 64.23C158.74 64.23 158.48 64.62 158.48 65.39V67.49H157.54V63.44L157.53 63.43Z" fill="#606060"/>
<path d="M162.78 61.74C162.78 61.58 162.84 61.44 162.96 61.32C163.08 61.2 163.22 61.14 163.39 61.14C163.56 61.14 163.71 61.2 163.83 61.32C163.95 61.44 164.01 61.58 164.01 61.75C164.01 61.92 163.95 62.06 163.83 62.18C163.71 62.3 163.57 62.36 163.4 62.36C163.23 62.36 163.09 62.3 162.97 62.18C162.85 62.06 162.79 61.92 162.79 61.74H162.78ZM163.86 63.43V67.48H162.92V63.43H163.86Z" fill="#606060"/>
<path d="M168.05 69.68H167.11V63.42H168.05V63.86C168.42 63.49 168.84 63.31 169.31 63.31C169.87 63.31 170.33 63.52 170.69 63.93C171.06 64.34 171.24 64.85 171.24 65.47C171.24 66.09 171.06 66.58 170.69 66.99C170.33 67.39 169.87 67.59 169.32 67.59C168.84 67.59 168.42 67.4 168.04 67.02V69.68H168.05ZM170.29 65.48C170.29 65.09 170.18 64.77 169.97 64.53C169.76 64.28 169.48 64.16 169.16 64.16C168.81 64.16 168.53 64.28 168.32 64.52C168.11 64.76 168 65.07 168 65.46C168 65.85 168.11 66.15 168.32 66.4C168.53 66.64 168.81 66.76 169.16 66.76C169.49 66.76 169.76 66.64 169.97 66.39C170.19 66.15 170.3 65.84 170.3 65.47L170.29 65.48Z" fill="#606060"/>
<path d="M182.41 61.97H180.16V63.51H182.33V64.42H180.16V67.48H179.18V61.06H182.41V61.97Z" fill="#606060"/>
<path d="M189.06 65.67H186.14C186.17 66 186.27 66.27 186.47 66.46C186.66 66.65 186.91 66.75 187.21 66.75C187.44 66.75 187.64 66.69 187.79 66.58C187.94 66.47 188.11 66.26 188.3 65.96L189.09 66.4C188.97 66.61 188.84 66.79 188.7 66.93C188.56 67.07 188.42 67.2 188.26 67.3C188.1 67.4 187.94 67.47 187.75 67.51C187.57 67.55 187.37 67.58 187.16 67.58C186.55 67.58 186.06 67.39 185.7 67C185.33 66.61 185.15 66.09 185.15 65.44C185.15 64.79 185.33 64.28 185.69 63.88C186.05 63.49 186.53 63.29 187.12 63.29C187.71 63.29 188.19 63.48 188.54 63.86C188.89 64.24 189.06 64.76 189.06 65.43V65.65V65.67ZM188.1 64.91C187.97 64.41 187.65 64.16 187.15 64.16C187.04 64.16 186.93 64.18 186.83 64.21C186.73 64.25 186.64 64.29 186.56 64.36C186.48 64.42 186.41 64.5 186.35 64.59C186.29 64.68 186.25 64.79 186.22 64.9H188.11L188.1 64.91Z" fill="#606060"/>
<path d="M195.86 65.67H192.94C192.97 66 193.07 66.27 193.27 66.46C193.46 66.65 193.71 66.75 194.01 66.75C194.24 66.75 194.44 66.69 194.59 66.58C194.74 66.47 194.91 66.26 195.1 65.96L195.89 66.4C195.77 66.61 195.64 66.79 195.5 66.93C195.36 67.07 195.22 67.2 195.06 67.3C194.9 67.4 194.74 67.47 194.55 67.51C194.37 67.55 194.17 67.58 193.96 67.58C193.35 67.58 192.86 67.39 192.5 67C192.13 66.61 191.95 66.09 191.95 65.44C191.95 64.79 192.13 64.28 192.49 63.88C192.85 63.49 193.33 63.29 193.92 63.29C194.51 63.29 194.99 63.48 195.34 63.86C195.69 64.24 195.86 64.76 195.86 65.43V65.65V65.67ZM194.89 64.91C194.76 64.41 194.44 64.16 193.94 64.16C193.83 64.16 193.72 64.18 193.62 64.21C193.52 64.25 193.43 64.29 193.35 64.36C193.27 64.42 193.2 64.5 193.14 64.59C193.08 64.68 193.04 64.79 193.01 64.9H194.9L194.89 64.91Z" fill="#606060"/>
<path d="M199.89 60.45V67.48H198.95V60.45H199.89Z" fill="#606060"/>
<path d="M205.5 64.12L204.72 64.53C204.6 64.28 204.45 64.16 204.26 64.16C204.17 64.16 204.1 64.19 204.04 64.24C203.98 64.29 203.95 64.37 203.95 64.46C203.95 64.62 204.13 64.77 204.49 64.92C204.99 65.13 205.32 65.33 205.5 65.51C205.67 65.69 205.76 65.93 205.76 66.24C205.76 66.63 205.61 66.96 205.32 67.22C205.04 67.47 204.7 67.59 204.3 67.59C203.62 67.59 203.13 67.26 202.85 66.6L203.65 66.23C203.76 66.42 203.85 66.55 203.9 66.6C204.01 66.71 204.15 66.76 204.31 66.76C204.63 66.76 204.79 66.62 204.79 66.33C204.79 66.16 204.67 66.01 204.42 65.86C204.32 65.81 204.23 65.77 204.13 65.72C204.03 65.67 203.94 65.63 203.84 65.58C203.57 65.45 203.37 65.31 203.26 65.18C203.12 65.01 203.05 64.79 203.05 64.53C203.05 64.18 203.17 63.89 203.41 63.66C203.66 63.43 203.96 63.31 204.31 63.31C204.83 63.31 205.22 63.58 205.47 64.11L205.5 64.12Z" fill="#606060"/>
<path d="M214.52 61.05V66.56H216.42V67.47H213.55V61.05H214.53H214.52Z" fill="#606060"/>
<path d="M219.08 61.74C219.08 61.58 219.14 61.44 219.26 61.32C219.38 61.2 219.52 61.14 219.69 61.14C219.86 61.14 220.01 61.2 220.13 61.32C220.25 61.44 220.31 61.58 220.31 61.75C220.31 61.92 220.25 62.06 220.13 62.18C220.01 62.3 219.87 62.36 219.7 62.36C219.53 62.36 219.39 62.3 219.27 62.18C219.15 62.06 219.09 61.92 219.09 61.74H219.08ZM220.16 63.43V67.48H219.22V63.43H220.16Z" fill="#606060"/>
<path d="M224.35 60.45V64.74L225.68 63.43H226.94L225.17 65.13L227.07 67.48H225.85L224.5 65.77L224.35 65.92V67.48H223.41V60.45H224.35Z" fill="#606060"/>
<path d="M233.31 65.67H230.39C230.42 66 230.52 66.27 230.72 66.46C230.91 66.65 231.16 66.75 231.46 66.75C231.69 66.75 231.89 66.69 232.04 66.58C232.19 66.47 232.36 66.26 232.55 65.96L233.34 66.4C233.22 66.61 233.09 66.79 232.95 66.93C232.81 67.07 232.67 67.2 232.51 67.3C232.35 67.4 232.19 67.47 232 67.51C231.82 67.55 231.62 67.58 231.41 67.58C230.8 67.58 230.31 67.39 229.95 67C229.58 66.61 229.4 66.09 229.4 65.44C229.4 64.79 229.58 64.28 229.94 63.88C230.3 63.49 230.78 63.29 231.37 63.29C231.96 63.29 232.44 63.48 232.79 63.86C233.14 64.24 233.31 64.76 233.31 65.43V65.65V65.67ZM232.34 64.91C232.21 64.41 231.89 64.16 231.39 64.16C231.28 64.16 231.17 64.18 231.07 64.21C230.97 64.25 230.88 64.29 230.8 64.36C230.72 64.42 230.65 64.5 230.59 64.59C230.53 64.68 230.49 64.79 230.46 64.9H232.35L232.34 64.91Z" fill="#606060"/>
<path d="M246.05 61.4V62.55C245.49 62.08 244.9 61.85 244.3 61.85C243.64 61.85 243.08 62.09 242.62 62.56C242.16 63.03 241.93 63.61 241.93 64.29C241.93 64.97 242.16 65.53 242.62 66C243.08 66.46 243.64 66.69 244.3 66.69C244.64 66.69 244.93 66.64 245.17 66.52C245.3 66.46 245.44 66.39 245.59 66.3C245.74 66.21 245.88 66.09 246.04 65.96V67.13C245.48 67.44 244.9 67.6 244.28 67.6C243.36 67.6 242.57 67.28 241.92 66.64C241.27 65.99 240.95 65.21 240.95 64.3C240.95 63.48 241.22 62.75 241.77 62.11C242.44 61.33 243.31 60.93 244.37 60.93C244.95 60.93 245.51 61.09 246.05 61.4Z" fill="#606060"/>
<path d="M248.96 65.42C248.96 64.84 249.17 64.34 249.59 63.93C250.01 63.52 250.52 63.31 251.13 63.31C251.74 63.31 252.25 63.52 252.68 63.93C253.1 64.34 253.31 64.85 253.31 65.45C253.31 66.05 253.1 66.57 252.68 66.98C252.26 67.39 251.74 67.59 251.12 67.59C250.5 67.59 250 67.38 249.58 66.97C249.17 66.56 248.96 66.04 248.96 65.42ZM249.92 65.44C249.92 65.85 250.03 66.17 250.25 66.4C250.47 66.64 250.77 66.76 251.13 66.76C251.49 66.76 251.79 66.64 252.01 66.41C252.23 66.17 252.34 65.86 252.34 65.47C252.34 65.08 252.23 64.76 252.01 64.52C251.79 64.28 251.49 64.16 251.13 64.16C250.77 64.16 250.48 64.28 250.26 64.52C250.04 64.76 249.93 65.07 249.93 65.44H249.92Z" fill="#606060"/>
<path d="M256.36 63.43H257.3V63.81C257.48 63.62 257.64 63.49 257.76 63.43C257.9 63.36 258.07 63.33 258.27 63.33C258.73 63.33 259.09 63.53 259.36 63.93C259.65 63.53 260.06 63.33 260.56 63.33C261.48 63.33 261.94 63.88 261.94 64.99V67.49H260.99V65.24C260.99 64.85 260.94 64.58 260.85 64.42C260.75 64.26 260.59 64.17 260.37 64.17C260.11 64.17 259.92 64.27 259.8 64.46C259.68 64.65 259.62 64.97 259.62 65.4V67.49H258.67V65.25C258.67 64.53 258.46 64.17 258.04 64.17C257.77 64.17 257.58 64.27 257.46 64.46C257.34 64.66 257.28 64.97 257.28 65.39V67.48H256.34V63.43H256.36Z" fill="#606060"/>
<path d="M265.05 61.74C265.05 61.58 265.11 61.44 265.23 61.32C265.35 61.2 265.49 61.14 265.66 61.14C265.83 61.14 265.98 61.2 266.1 61.32C266.22 61.44 266.28 61.58 266.28 61.75C266.28 61.92 266.22 62.06 266.1 62.18C265.98 62.3 265.84 62.36 265.67 62.36C265.5 62.36 265.36 62.3 265.24 62.18C265.12 62.06 265.06 61.92 265.06 61.74H265.05ZM266.13 63.43V67.48H265.19V63.43H266.13Z" fill="#606060"/>
<path d="M269.38 63.43H270.33V63.81C270.66 63.48 271.03 63.32 271.44 63.32C271.91 63.32 272.28 63.47 272.55 63.77C272.78 64.02 272.89 64.43 272.89 65.01V67.49H271.94V65.23C271.94 64.83 271.88 64.56 271.77 64.4C271.66 64.24 271.46 64.17 271.18 64.17C270.87 64.17 270.65 64.27 270.51 64.48C270.38 64.68 270.32 65.04 270.32 65.54V67.5H269.37V63.45L269.38 63.43Z" fill="#606060"/>
<path d="M280.08 67.38C280.08 67.57 280.08 67.74 280.06 67.89C280.04 68.04 280.03 68.16 280.01 68.27C279.94 68.57 279.81 68.84 279.62 69.06C279.25 69.48 278.75 69.69 278.1 69.69C277.56 69.69 277.11 69.54 276.76 69.25C276.4 68.95 276.19 68.54 276.13 68.01H277.08C277.12 68.21 277.18 68.36 277.26 68.47C277.46 68.72 277.74 68.85 278.11 68.85C278.8 68.85 279.14 68.43 279.14 67.59V67.02C278.77 67.4 278.34 67.59 277.85 67.59C277.3 67.59 276.84 67.39 276.49 66.99C276.13 66.58 275.95 66.08 275.95 65.47C275.95 64.86 276.12 64.38 276.45 63.96C276.81 63.52 277.28 63.3 277.86 63.3C278.37 63.3 278.8 63.49 279.14 63.87V63.41H280.08V67.37V67.38ZM279.17 65.46C279.17 65.07 279.06 64.75 278.85 64.51C278.64 64.27 278.36 64.15 278.03 64.15C277.67 64.15 277.39 64.28 277.19 64.54C277 64.78 276.91 65.08 276.91 65.46C276.91 65.84 277 66.13 277.19 66.37C277.39 66.63 277.67 66.76 278.03 66.76C278.39 66.76 278.67 66.63 278.88 66.37C279.07 66.13 279.17 65.83 279.17 65.46Z" fill="#606060"/>
<path d="M289.17 63.57H291.96V61.06H292.93V67.48H291.96V64.48H289.17V67.48H288.19V61.06H289.17V63.57Z" fill="#606060"/>
<path d="M296.17 65.42C296.17 64.84 296.38 64.34 296.8 63.93C297.22 63.52 297.73 63.31 298.34 63.31C298.95 63.31 299.46 63.52 299.89 63.93C300.31 64.34 300.52 64.85 300.52 65.45C300.52 66.05 300.31 66.57 299.89 66.98C299.47 67.39 298.95 67.59 298.33 67.59C297.71 67.59 297.21 67.38 296.79 66.97C296.38 66.56 296.17 66.04 296.17 65.42ZM297.13 65.44C297.13 65.85 297.24 66.17 297.46 66.4C297.68 66.64 297.98 66.76 298.34 66.76C298.7 66.76 299 66.64 299.22 66.41C299.44 66.17 299.55 65.86 299.55 65.47C299.55 65.08 299.44 64.76 299.22 64.52C299 64.28 298.7 64.16 298.34 64.16C297.98 64.16 297.69 64.28 297.47 64.52C297.25 64.76 297.14 65.07 297.14 65.44H297.13Z" fill="#606060"/>
<path d="M303.56 63.43H304.5V63.81C304.68 63.62 304.84 63.49 304.96 63.43C305.1 63.36 305.27 63.33 305.47 63.33C305.93 63.33 306.29 63.53 306.56 63.93C306.85 63.53 307.26 63.33 307.76 63.33C308.68 63.33 309.14 63.88 309.14 64.99V67.49H308.19V65.24C308.19 64.85 308.14 64.58 308.05 64.42C307.95 64.26 307.79 64.17 307.57 64.17C307.31 64.17 307.12 64.27 307 64.46C306.88 64.65 306.82 64.97 306.82 65.4V67.49H305.87V65.25C305.87 64.53 305.66 64.17 305.24 64.17C304.97 64.17 304.78 64.27 304.66 64.46C304.54 64.66 304.48 64.97 304.48 65.39V67.48H303.54V63.43H303.56Z" fill="#606060"/>
<path d="M316.11 65.67H313.19C313.22 66 313.32 66.27 313.52 66.46C313.71 66.65 313.96 66.75 314.26 66.75C314.49 66.75 314.69 66.69 314.84 66.58C314.99 66.47 315.16 66.26 315.35 65.96L316.14 66.4C316.02 66.61 315.89 66.79 315.75 66.93C315.61 67.07 315.47 67.2 315.31 67.3C315.15 67.4 314.99 67.47 314.8 67.51C314.62 67.55 314.42 67.58 314.21 67.58C313.6 67.58 313.11 67.39 312.75 67C312.38 66.61 312.2 66.09 312.2 65.44C312.2 64.79 312.38 64.28 312.74 63.88C313.1 63.49 313.58 63.29 314.17 63.29C314.76 63.29 315.24 63.48 315.59 63.86C315.94 64.24 316.11 64.76 316.11 65.43V65.65V65.67ZM315.14 64.91C315.01 64.41 314.69 64.16 314.19 64.16C314.08 64.16 313.97 64.18 313.87 64.21C313.77 64.25 313.68 64.29 313.6 64.36C313.52 64.42 313.45 64.5 313.39 64.59C313.33 64.68 313.29 64.79 313.26 64.9H315.15L315.14 64.91Z" fill="#606060"/>
<path d="M316.54 11.65H311.59V16.6H316.54V11.65Z" fill="#D97708"/>
</g>
<defs>
<clipPath id="clip0_1_2">
<rect width="316.54" height="81.05" fill="white"/>
</clipPath>
</defs>
</svg>
